#!OML:ASF F:\VICON\USERDATA\INSTALL\rory3\rory3.ASF
:FULLY-SPECIFIED
:DEGREES
112
root 0.240557 13.7894 -2.37044 3.70889 -2.20884 4.75194
lowerback 30.775 0.357068 -3.88774
upperback 6.24177 -0.955263 -1.58997
thorax -9.80796 -0.360406 0.807934
lowerneck -13.8547 -1.51995 -7.8209
upperneck -11.1899 -0.642725 7.45663
head -1.18885 -0.0418574 3.85121
rclavicle -1.59028e-014 -9.93923e-017
rhumerus -21.9952 -0.140986 -81.6928
rradius 40.1532
rwrist 7.352
rhand -30.9169 -3.88338
rfingers 7.12502
rthumb -4.20292 -33.8217
lclavicle -1.59028e-014 -9.93923e-017
lhumerus -22.4137 -1.517 81.0073
lradius 41.1755
lwrist 7.12663
lhand -30.198 23.9835
lfingers 7.12502
lthumb -3.50865 53.9343
rfemur -58.3944 -8.11337 12.1656
rtibia 106.016
rfoot -35.3144 0.274199
rtoes -21.1892
lfemur -55.5843 10.4916 -23.8938
ltibia 101.761
lfoot -31.0932 -9.44798
ltoes -10.3865
113
root 0.235877 13.7243 -2.37335 3.60243 -2.10627 4.83022
lowerback 30.9067 0.343423 -3.89621
upperback 6.27832 -0.981085 -1.59923
thorax -9.82873 -0.371758 0.812663
lowerneck -14.0121 -1.5126 -7.75232
upperneck -11.2954 -0.630582 7.37002
head -1.20006 -0.0349392 3.80779
rclavicle -4.37326e-015 -8.94531e-016
rhumerus -21.7906 -0.0642609 -81.7324
rradius 40.6203
rwrist 5.79418
rhand -30.9851 -3.26709
rfingers 7.12502
rthumb -4.2688 -33.2041
lclavicle -4.37326e-015 -8.94531e-016
lhumerus -22.2289 -1.6755 81.0414
lradius 41.8134
lwrist 7.78992
lhand -29.8725 24.75
lfingers 7.12502
lthumb -3.19435 54.7058
rfemur -58.7254 -8.36573 12.1818
rtibia 106.67
rfoot -35.3786 -0.0880737
rtoes -21.475
lfemur -55.7878 10.4448 -23.9957
ltibia 102.292
lfoot -31.4074 -9.21466
ltoes -10.5785
114
root 0.234172 13.6696 -2.37546 3.47806 -2.02141 4.99449
lowerback 31.0397 0.342709 -3.97579
upperback 6.3206 -1.01379 -1.61754
thorax -9.84168 -0.384702 0.850861
lowerneck -14.2424 -1.496 -7.82396
upperneck -11.2631 -0.58183 7.39735
head -1.15487 -0.00330583 3.83358
rclavicle -2.28602e-015 -9.64106e-015
rhumerus -21.5753 0.0456173 -81.7315
rradius 41.1235
rwrist 4.45949
rhand -31.4208 -2.67353
rfingers 7.12502
rthumb -4.68951 -32.6016
lclavicle -2.28602e-015 -9.64106e-015
lhumerus -22.0293 -1.7927 81.0918
lradius 42.5821
lwrist 8.39423
lhand -29.4468 25.6905
lfingers 7.12502
lthumb -2.78324 55.6521
rfemur -58.9229 -8.59412 12.0554
rtibia 107.252
rfoot -35.4752 -0.274776
rtoes -21.5323
lfemur -55.8834 10.3283 -24.1876
ltibia 102.705
lfoot -31.6988 -9.04436
ltoes -10.6143
115
root 0.232812 13.6257 -2.37216 3.30362 -1.91867 5.17529
lowerback 31.181 0.333349 -4.04072
upperback 6.37767 -1.0541 -1.64722
thorax -9.84162 -0.401995 0.870652
lowerneck -14.4018 -1.48667 -7.92755
upperneck -11.2767 -0.539016 7.47316
head -1.13621 0.0255409 3.8835
rclavicle 9.74045e-015 -4.32357e-015
rhumerus -21.4074 0.233686 -81.7584
rradius 41.6515
rwrist 3.33923
rhand -32.0271 -3.06687
rfingers 7.12502
rthumb -5.27486 -32.9812
lclavicle 9.74045e-015 -4.32357e-015
lhumerus -21.8325 -1.84056 81.1156
lradius 43.1718
lwrist 8.66929
lhand -29.5169 25.2914
lfingers 7.12502
lthumb -2.8509 55.2521
rfemur -58.9293 -8.71213 11.8622
rtibia 107.765
rfoot -35.6594 -0.251038
rtoes -21.0197
lfemur -55.8096 10.1931 -24.3968
ltibia 103.014
lfoot -32.0586 -8.72952
ltoes -11.2254
116
root 0.229888 13.5691 -2.37038 3.12179 -1.87398 5.18001
lowerback 31.3205 0.318794 -3.98316
upperback 6.46119 -1.05812 -1.64614
thorax -9.81354 -0.406425 0.840927
lowerneck -14.5031 -1.50827 -7.86898
upperneck -11.5123 -0.562082 7.42242
head -1.19783 0.0143943 3.85453
rclavicle -1.63997e-014 -5.11871e-015
rhumerus -21.1321 0.45354 -81.8112
rradius 42.2435
rwrist 2.02318
rhand -32.5882 -2.32378
rfingers 7.12502
rthumb -5.81667 -32.2239
lclavicle -1.63997e-014 -5.11871e-015
lhumerus -21.5233 -1.85258 81.0906
lradius 43.5119
lwrist 8.81487
lhand -30.0515 24.2963
lfingers 7.12502
lthumb -3.36722 54.2494
rfemur -59.0285 -8.69342 11.9197
rtibia 108.293
rfoot -35.7529 -0.616658
rtoes -21.1853
lfemur -55.6735 10.2263 -24.3944
ltibia 103.331
lfoot -32.4118 -8.76312
ltoes -11.19
117
root 0.22777 13.5034 -2.37105 3.01207 -1.92265 5.25411
lowerback 31.3784 0.356335 -4.01624
upperback 6.49826 -1.02608 -1.67204
thorax -9.79965 -0.391684 0.818563
lowerneck -14.4189 -1.51253 -7.78195
upperneck -11.8892 -0.574201 7.35866
head -1.33932 0.00484763 3.81711
rclavicle 1.21507e-014 2.03257e-014
rhumerus -20.827 0.56455 -81.8528
rradius 42.7825
rwrist 0.684863
rhand -33.3223 -0.62066
rfingers 7.12502
rthumb -6.52533 -30.5001
lclavicle 1.21507e-014 2.03257e-014
lhumerus -21.2293 -2.10508 81.1367
lradius 44.1771
lwrist 9.47661
lhand -30.0639 24.964
lfingers 7.12502
lthumb -3.3792 54.917
rfemur -59.3374 -8.67988 11.9367
rtibia 108.845
rfoot -35.7626 -1.41832
rtoes -22.3944
lfemur -55.56 10.319 -24.5094
ltibia 103.645
lfoot -32.8252 -8.74163
ltoes -11.148
118
root 0.224266 13.4562 -2.3734 2.88293 -1.90467 5.40161
lowerback 31.4983 0.387066 -4.12189
upperback 6.50515 -1.02975 -1.69678
thorax -9.8473 -0.38985 0.85339
lowerneck -14.2557 -1.50815 -7.77299
upperneck -12.267 -0.569232 7.30963
head -1.49585 0.00583575 3.80176
rclavicle 8.4235e-015 2.69353e-014
rhumerus -20.5934 0.608304 -81.8875
rradius 43.3933
rwrist -0.160503
rhand -33.9503 -0.18162
rfingers 7.12502
rthumb -7.13157 -30.0415
lclavicle 8.4235e-015 2.69353e-014
lhumerus -21.0694 -2.29549 81.1936
lradius 44.9021
lwrist 10.2104
lhand -30.3836 25.1864
lfingers 7.12502
lthumb -3.68791 55.1342
rfemur -59.4786 -8.78784 11.8401
rtibia 109.285
rfoot -35.7953 -1.88894
rtoes -23.063
lfemur -55.5414 10.2526 -24.6763
ltibia 103.945
lfoot -33.0995 -8.71609
ltoes -9.65771
119
root 0.216682 13.4272 -2.3758 2.74957 -1.82804 5.48933
lowerback 31.893 0.428518 -4.24502
upperback 6.07457 -1.04337 -1.64044
thorax -9.71305 -0.388271 0.919317
lowerneck -14.2547 -1.51718 -7.74778
upperneck -12.5152 -0.579298 7.2412
head -1.58035 0.00109452 3.77446
rclavicle 1.46852e-014 8.69683e-015
rhumerus -20.3612 0.478266 -81.9239
rradius 44.1076
rwrist -0.362163
rhand -34.1678 -1.17487
rfingers 7.12502
rthumb -7.34151 -31.0275
lclavicle 1.46852e-014 8.69683e-015
lhumerus -20.7407 -2.35622 81.2192
lradius 45.4583
lwrist 10.4203
lhand -30.7272 25.4738
lfingers 7.12502
lthumb -4.01975 55.4156
rfemur -59.465 -8.92611 11.8005
rtibia 109.619
rfoot -35.8905 -1.88904
rtoes -22.7031
lfemur -55.6938 10.1502 -24.7512
ltibia 104.261
lfoot -33.2504 -8.50751
ltoes -7.76254
120
root 0.210494 13.3863 -2.37664 2.64424 -1.79243 5.51829
lowerback 31.9744 0.450856 -4.27963
upperback 6.09683 -1.02698 -1.61581
thorax -9.72032 -0.379778 0.957787
lowerneck -14.3796 -1.51182 -7.69754
upperneck -12.7278 -0.566418 7.16329
head -1.63403 0.00898249 3.73924
rclavicle -2.28602e-015 7.1314e-015
rhumerus -20.0525 0.286873 -81.9546
rradius 44.9255
rwrist -0.51359
rhand -34.3018 -2.03577
rfingers 7.12502
rthumb -7.47087 -31.8838
lclavicle -2.28602e-015 7.1314e-015
lhumerus -20.2797 -2.30871 81.234
lradius 45.9175
lwrist 10.4029
lhand -31.1545 25.2697
lfingers 7.12502
lthumb -4.43232 55.2033
rfemur -59.5604 -9.01544 11.8391
rtibia 109.999
rfoot -35.9954 -1.90592
rtoes -22.1894
lfemur -55.8137 10.2128 -24.8023
ltibia 104.608
lfoot -33.5039 -8.47981
ltoes -6.60316
121
root 0.203955 13.343 -2.37732 2.5012 -1.77566 5.41812
lowerback 32.0368 0.475165 -4.22992
upperback 6.16523 -0.97279 -1.54801
thorax -9.67186 -0.357517 0.982927
lowerneck -14.5706 -1.54783 -7.55334
upperneck -13.0059 -0.619492 7.02149
head -1.69414 -0.0191011 3.66087
rclavicle -3.32343e-015 1.17531e-014
rhumerus -19.6233 0.33917 -81.9494
rradius 45.7754
rwrist -0.764296
rhand -34.3952 -1.86806
rfingers 7.12502
rthumb -7.56103 -31.7129
lclavicle -3.32343e-015 1.17531e-014
lhumerus -19.7108 -2.17751 81.2679
lradius 46.4788
lwrist 10.9208
lhand -31.3461 24.1351
lfingers 7.12502
lthumb -4.61736 54.0648
rfemur -59.6462 -9.08517 12.0857
rtibia 110.383
rfoot -36.1176 -2.3085
rtoes -22.0686
lfemur -55.8483 10.4274 -24.7082
ltibia 104.967
lfoot -33.7936 -8.57982
ltoes -6.09997
122
root 0.196681 13.3155 -2.37547 2.33461 -1.77707 5.21985
lowerback 32.1397 0.489036 -4.10137
upperback 6.18334 -0.910432 -1.4809
thorax -9.69773 -0.331306 0.962666
lowerneck -14.532 -1.53703 -7.32706
upperneck -13.43 -0.635315 6.82628
head -1.84549 -0.0352449 3.55163
rclavicle 4.51614e-015 1.09704e-014
rhumerus -19.1956 0.459538 -82.0128
rradius 46.5438
rwrist -0.785997
rhand -34.4247 -1.68926
rfingers 7.12502
rthumb -7.58949 -31.5331
lclavicle 4.51614e-015 1.09704e-014
lhumerus -19.156 -1.79085 81.1576
lradius 47.265
lwrist 10.5345
lhand -30.6023 25.6793
lfingers 7.12502
lthumb -3.89913 55.6234
rfemur -59.5746 -9.09548 12.4532
rtibia 110.694
rfoot -36.3605 -2.74662
rtoes -22.173
lfemur -55.7822 10.7083 -24.5311
ltibia 105.209
lfoot -34.0999 -8.35798
ltoes -6.36
123
root 0.191137 13.3025 -2.37734 2.15413 -1.74183 5.22114
lowerback 32.3138 0.508956 -4.10978
upperback 6.17327 -0.895461 -1.46221
thorax -9.77853 -0.322283 0.981511
lowerneck -14.433 -1.49892 -7.36602
upperneck -13.8475 -0.568933 6.84734
head -2.01141 0.000467096 3.5753
rclavicle 2.20216e-015 2.48481e-017
rhumerus -18.734 0.503746 -82.0606
rradius 47.3026
rwrist -0.761117
rhand -34.7437 -2.03842
rfingers 7.12502
rthumb -7.89738 -31.8709
lclavicle 2.20216e-015 2.48481e-017
lhumerus -18.5707 -1.48432 81.1219
lradius 47.8946
lwrist 10.4553
lhand -30.7949 26.1026
lfingers 7.12502
lthumb -4.08504 56.0432
rfemur -59.3835 -9.23023 12.5671
rtibia 110.873
rfoot -36.5444 -3.00075
rtoes -22.0728
lfemur -55.5993 10.8911 -24.6457
ltibia 105.285
lfoot -34.3775 -7.86985
ltoes -6.65816
